# xmcd
# Copyright (C) 1995-1998 Ti Kan
#
# Track frame offsets:
#       150
#       88699
#       185644
#
# Disc length: 3707 seconds
#
# Revision: 0
# Processed by: cddbd v1.5.1PL2 Copyright (c) Steve Scherf et al.
# Submitted via: CD-Transfer v1.0
#
DISCID=200e7903
DTITLE=Goldies Sendung - 
DYEAR=1900
DGENRE=
TTITLE0=Musigparade 13.8.06 Teil 4
TTITLE1=Musigparade 13.8.06 Teil 5
TTITLE2=Musigparade 13.8.06 Teil 6
EXTD=
EXTT0=
EXTT1=
EXTT2=
PLAYORDER=
